<?xml version="1.0" encoding="UTF-8"?>
<svg width="25px" height="22px" viewBox="0 0 25 22" version="1.1" xmlns="http://www.w3.org/2000/svg" xmlns:xlink="http://www.w3.org/1999/xlink">
    <title>Group 2</title>
    <g id="Page-1" stroke="none" stroke-width="1" fill="none" fill-rule="evenodd">
        <g id="Group-2" fill-rule="nonzero">
            <g id="logo" transform="translate(0.570000, 0.730000)">
                <rect id="Rectangle" fill="#FBBE2C" x="0" y="14.31" width="24" height="6.32"></rect>
                <g id="Group" transform="translate(2.210000, 0.000000)" fill="#3C3C3B" stroke="#FFFFFF" stroke-width="0.25">
                    <path d="M0,-3.33066907e-16 L9.56,-3.33066907e-16 C11.72,-3.33066907e-16 13.63,0.36 15.28,1.08 C16.93,1.8 18.22,2.83 19.13,4.17 C20.04,5.51 20.5,7.08 20.5,8.9 C20.5,10.72 20.04,12.29 19.13,13.63 C18.22,14.97 16.93,16 15.28,16.72 C13.63,17.44 11.72,17.8 9.56,17.8 L0,17.8 L0,-3.33066907e-16 L0,-3.33066907e-16 Z M9.28,13.12 C10.68,13.12 11.81,12.75 12.65,12.01 C13.49,11.27 13.91,10.23 13.91,8.9 C13.91,7.57 13.49,6.52 12.65,5.79 C11.81,5.05 10.69,4.68 9.28,4.68 L6.54,4.68 L6.54,13.12 L9.28,13.12 Z" id="Shape"></path>
                </g>
            </g>
        </g>
    </g>
</svg>